<?xml version="1.0" encoding="UTF-8" standalone="no"?>
<svg width="800" height="800" viewBox="0 0 800 800" xmlns="http://www.w3.org/2000/svg">
  <g fill="none" stroke="white" stroke-width="1">
    <!-- Horizontal lines -->
    <path d="M0,100 H800" />
    <path d="M0,200 H800" />
    <path d="M0,300 H800" />
    <path d="M0,400 H800" />
    <path d="M0,500 H800" />
    <path d="M0,600 H800" />
    <path d="M0,700 H800" />
    
    <!-- Vertical lines -->
    <path d="M100,0 V800" />
    <path d="M200,0 V800" />
    <path d="M300,0 V800" />
    <path d="M400,0 V800" />
    <path d="M500,0 V800" />
    <path d="M600,0 V800" />
    <path d="M700,0 V800" />
    
    <!-- Circuit elements -->
    <!-- Nodes -->
    <circle cx="100" cy="100" r="5" stroke-width="1.5"/>
    <circle cx="300" cy="100" r="5" stroke-width="1.5"/>
    <circle cx="500" cy="100" r="5" stroke-width="1.5"/>
    <circle cx="700" cy="100" r="5" stroke-width="1.5"/>
    
    <circle cx="200" cy="200" r="5" stroke-width="1.5"/>
    <circle cx="400" cy="200" r="5" stroke-width="1.5"/>
    <circle cx="600" cy="200" r="5" stroke-width="1.5"/>
    
    <circle cx="100" cy="300" r="5" stroke-width="1.5"/>
    <circle cx="300" cy="300" r="5" stroke-width="1.5"/>
    <circle cx="500" cy="300" r="5" stroke-width="1.5"/>
    <circle cx="700" cy="300" r="5" stroke-width="1.5"/>
    
    <circle cx="200" cy="400" r="5" stroke-width="1.5"/>
    <circle cx="400" cy="400" r="5" stroke-width="1.5"/>
    <circle cx="600" cy="400" r="5" stroke-width="1.5"/>
    
    <circle cx="100" cy="500" r="5" stroke-width="1.5"/>
    <circle cx="300" cy="500" r="5" stroke-width="1.5"/>
    <circle cx="500" cy="500" r="5" stroke-width="1.5"/>
    <circle cx="700" cy="500" r="5" stroke-width="1.5"/>
    
    <circle cx="200" cy="600" r="5" stroke-width="1.5"/>
    <circle cx="400" cy="600" r="5" stroke-width="1.5"/>
    <circle cx="600" cy="600" r="5" stroke-width="1.5"/>
    
    <circle cx="100" cy="700" r="5" stroke-width="1.5"/>
    <circle cx="300" cy="700" r="5" stroke-width="1.5"/>
    <circle cx="500" cy="700" r="5" stroke-width="1.5"/>
    <circle cx="700" cy="700" r="5" stroke-width="1.5"/>
    
    <!-- Diagonal connectors -->
    <path d="M100,100 L200,200" />
    <path d="M300,100 L400,200" />
    <path d="M500,100 L600,200" />
    
    <path d="M200,200 L100,300" />
    <path d="M400,200 L300,300" />
    <path d="M600,200 L500,300" />
    
    <path d="M300,300 L200,400" />
    <path d="M500,300 L400,400" />
    <path d="M700,300 L600,400" />
    
    <path d="M200,400 L100,500" />
    <path d="M400,400 L300,500" />
    <path d="M600,400 L500,500" />
    
    <path d="M300,500 L200,600" />
    <path d="M500,500 L400,600" />
    <path d="M700,500 L600,600" />
    
    <path d="M200,600 L100,700" />
    <path d="M400,600 L300,700" />
    <path d="M600,600 L500,700" />
    
    <!-- Additional circuit elements -->
    <!-- Small squares -->
    <rect x="95" y="195" width="10" height="10" />
    <rect x="295" y="195" width="10" height="10" />
    <rect x="495" y="195" width="10" height="10" />
    <rect x="695" y="195" width="10" height="10" />
    
    <rect x="195" y="395" width="10" height="10" />
    <rect x="395" y="395" width="10" height="10" />
    <rect x="595" y="395" width="10" height="10" />
    
    <rect x="95" y="595" width="10" height="10" />
    <rect x="295" y="595" width="10" height="10" />
    <rect x="495" y="595" width="10" height="10" />
    <rect x="695" y="595" width="10" height="10" />
    
    <!-- Small diamonds -->
    <path d="M200,100 l5,-5 l5,5 l-5,5 z" />
    <path d="M400,100 l5,-5 l5,5 l-5,5 z" />
    <path d="M600,100 l5,-5 l5,5 l-5,5 z" />
    
    <path d="M100,200 l5,-5 l5,5 l-5,5 z" />
    <path d="M300,200 l5,-5 l5,5 l-5,5 z" />
    <path d="M500,200 l5,-5 l5,5 l-5,5 z" />
    <path d="M700,200 l5,-5 l5,5 l-5,5 z" />
    
    <path d="M200,300 l5,-5 l5,5 l-5,5 z" />
    <path d="M400,300 l5,-5 l5,5 l-5,5 z" />
    <path d="M600,300 l5,-5 l5,5 l-5,5 z" />
    
    <path d="M100,400 l5,-5 l5,5 l-5,5 z" />
    <path d="M300,400 l5,-5 l5,5 l-5,5 z" />
    <path d="M500,400 l5,-5 l5,5 l-5,5 z" />
    <path d="M700,400 l5,-5 l5,5 l-5,5 z" />
    
    <path d="M200,500 l5,-5 l5,5 l-5,5 z" />
    <path d="M400,500 l5,-5 l5,5 l-5,5 z" />
    <path d="M600,500 l5,-5 l5,5 l-5,5 z" />
    
    <path d="M100,600 l5,-5 l5,5 l-5,5 z" />
    <path d="M300,600 l5,-5 l5,5 l-5,5 z" />
    <path d="M500,600 l5,-5 l5,5 l-5,5 z" />
    <path d="M700,600 l5,-5 l5,5 l-5,5 z" />
    
    <path d="M200,700 l5,-5 l5,5 l-5,5 z" />
    <path d="M400,700 l5,-5 l5,5 l-5,5 z" />
    <path d="M600,700 l5,-5 l5,5 l-5,5 z" />
  </g>
</svg>
