<svg viewBox="20.00530693069307 143.81964799999997 801.4030693069307 305.97392" version="1.1" xmlns="http://www.w3.org/2000/svg" data-name="Layer 1" id="Layer_1" style="max-height: 500px" width="801.4030693069307" height="305.97392">
  <g>
    <path d="M353.23,317.34v-88.04h36.22c7.8,0,14.48,1.24,20.06,3.71,5.58,2.47,9.87,6.06,12.89,10.75,3.02,4.7,4.53,10.31,4.53,16.85s-1.51,12.01-4.53,16.66-7.32,8.26-12.89,10.82c-5.58,2.56-12.26,3.84-20.06,3.84h-27.04l7.17-7.55v32.95h-16.35ZM369.58,286.15l-7.17-8.05h26.29c7.21,0,12.64-1.53,16.29-4.59,3.65-3.06,5.47-7.36,5.47-12.89s-1.82-9.83-5.47-12.89c-3.65-3.06-9.08-4.59-16.29-4.59h-26.29l7.17-8.05v51.06Z" stroke="none" fill="#fff"/>
    <path d="M448.68,342.62c-3.35,0-6.67-.55-9.94-1.64-3.27-1.09-5.95-2.6-8.05-4.53l6.16-11.44c1.59,1.34,3.37,2.43,5.34,3.27,1.97.84,4.04,1.26,6.23,1.26,2.85,0,5.16-.71,6.92-2.14,1.76-1.43,3.4-3.86,4.91-7.29l3.77-8.55,1.51-2.01,25.28-59.36h15.09l-31.44,72.69c-2.1,4.95-4.42,8.87-6.98,11.76-2.56,2.89-5.41,4.95-8.55,6.16-3.14,1.21-6.56,1.82-10.25,1.82ZM462.39,319.73l-30.31-69.55h16.22l24.78,57.98-10.69,11.57Z" stroke="none" fill="#fff"/>
    <path d="M544.14,318.22c-6.46,0-12.26-1.42-17.42-4.28-5.16-2.85-9.2-6.85-12.14-12.01-2.94-5.16-4.4-11.21-4.4-18.17s1.47-12.91,4.4-18.11c2.93-5.2,6.98-9.22,12.14-12.07,5.16-2.85,10.96-4.28,17.42-4.28,5.62,0,10.65,1.24,15.09,3.71,4.44,2.47,7.96,6.25,10.56,11.32,2.6,5.07,3.9,11.55,3.9,19.43s-1.26,14.25-3.77,19.37c-2.52,5.11-5.97,8.91-10.38,11.38-4.4,2.47-9.54,3.71-15.41,3.71ZM546.02,304.89c3.77,0,7.15-.86,10.12-2.58,2.97-1.72,5.36-4.19,7.17-7.42,1.8-3.23,2.7-6.94,2.7-11.13s-.9-7.99-2.7-11.13c-1.8-3.14-4.19-5.58-7.17-7.29-2.98-1.72-6.35-2.58-10.12-2.58s-7.15.86-10.12,2.58c-2.98,1.72-5.37,4.15-7.17,7.29-1.8,3.14-2.7,6.85-2.7,11.13s.9,7.9,2.7,11.13c1.8,3.23,4.19,5.7,7.17,7.42,2.98,1.72,6.35,2.58,10.12,2.58ZM566.52,317.34v-15.85l.38-17.86-1.26-17.86v-41.75h15.85v93.32h-14.97Z" stroke="none" fill="#fff"/>
    <path d="M622.36,318.22c-5.03,0-9.43-.86-13.21-2.58-3.77-1.72-6.69-4.11-8.74-7.17-2.06-3.06-3.08-6.52-3.08-10.38s.9-7.17,2.7-10.19c1.8-3.02,4.76-5.41,8.87-7.17,4.11-1.76,9.56-2.64,16.35-2.64h19.49v10.44h-18.36c-5.28,0-8.87.86-10.75,2.58-1.89,1.72-2.83,3.88-2.83,6.48,0,2.77,1.13,4.99,3.4,6.67,2.26,1.68,5.41,2.52,9.43,2.52s7.31-.88,10.38-2.64c3.06-1.76,5.3-4.36,6.73-7.8l2.52,9.43c-1.51,3.94-4.19,7-8.05,9.18-3.86,2.18-8.8,3.27-14.84,3.27ZM643.49,317.34v-13.71l-.75-2.77v-23.77c0-4.61-1.41-8.19-4.21-10.75-2.81-2.56-7.06-3.84-12.77-3.84-3.69,0-7.34.59-10.94,1.76-3.61,1.18-6.71,2.81-9.31,4.91l-6.16-11.44c3.69-2.77,8.01-4.86,12.95-6.29,4.95-1.42,10.1-2.14,15.47-2.14,9.81,0,17.36,2.35,22.64,7.04,5.28,4.7,7.92,11.91,7.92,21.63v39.37h-14.84Z" stroke="none" fill="#fff"/>
    <path d="M678.58,317.34v-67.16h14.97v18.49l-1.76-5.41c1.93-4.53,5.07-7.99,9.43-10.38,4.36-2.39,9.68-3.58,15.97-3.58v14.97c-.59-.08-1.17-.15-1.76-.19-.59-.04-1.13-.06-1.63-.06-6.04,0-10.82,1.72-14.34,5.16-3.52,3.44-5.28,8.68-5.28,15.72v32.45h-15.6Z" stroke="none" fill="#fff"/>
    <path d="M722.35,263.26v-12.58h44.77v12.58h-44.77ZM756.56,318.22c-7.38,0-13.08-1.91-17.1-5.72-4.02-3.81-6.04-9.41-6.04-16.79v-60.37h15.59v59.87c0,3.19.84,5.66,2.52,7.42,1.68,1.76,4.02,2.64,7.04,2.64,3.44,0,6.29-.92,8.55-2.77l4.53,11.19c-1.93,1.51-4.23,2.64-6.92,3.4-2.68.75-5.41,1.13-8.17,1.13Z" stroke="none" fill="#fff"/>
    <path d="M548.19,365.51v-29.97h3.17v29.97h-3.17Z" stroke="none" fill="#fff"/>
    <path d="M571.95,342.82c1.83,0,3.43.35,4.82,1.05,1.38.7,2.47,1.76,3.25,3.19.79,1.43,1.18,3.23,1.18,5.39v13.06h-3.04v-12.76c0-2.37-.59-4.16-1.78-5.37-1.19-1.21-2.85-1.82-4.99-1.82-1.6,0-2.99.32-4.17.96-1.18.64-2.1,1.57-2.74,2.78-.64,1.21-.96,2.68-.96,4.39v11.82h-3.04v-22.48h2.91v6.17l-.47-1.16c.71-1.63,1.86-2.9,3.43-3.83,1.57-.93,3.44-1.39,5.61-1.39Z" stroke="none" fill="#fff"/>
    <path d="M585.91,345.56v-2.53h13.92v2.53h-13.92ZM596.53,365.72c-2.11,0-3.74-.57-4.88-1.71s-1.71-2.75-1.71-4.84v-21.11h3.04v20.94c0,1.31.33,2.33,1.01,3.04.67.71,1.63,1.07,2.89,1.07,1.34,0,2.45-.39,3.34-1.16l1.07,2.18c-.6.54-1.32.94-2.16,1.2s-1.71.38-2.59.38Z" stroke="none" fill="#fff"/>
    <path d="M616.35,365.72c-2.34,0-4.4-.49-6.17-1.48-1.77-.99-3.15-2.34-4.15-4.07s-1.5-3.7-1.5-5.93.48-4.2,1.43-5.91c.96-1.71,2.27-3.06,3.94-4.04,1.67-.99,3.55-1.48,5.63-1.48s3.99.48,5.63,1.43c1.64.96,2.93,2.3,3.88,4.02.94,1.73,1.41,3.72,1.41,5.97,0,.14,0,.29-.02.45-.01.16-.02.32-.02.49h-19.57v-2.27h17.94l-1.2.9c0-1.63-.35-3.08-1.05-4.35-.7-1.27-1.65-2.26-2.85-2.98-1.2-.71-2.58-1.07-4.15-1.07s-2.93.36-4.15,1.07c-1.23.71-2.18,1.71-2.87,3s-1.03,2.75-1.03,4.41v.47c0,1.71.38,3.22,1.13,4.52.76,1.3,1.81,2.31,3.17,3.04,1.36.73,2.9,1.09,4.65,1.09,1.37,0,2.65-.24,3.83-.73,1.18-.49,2.2-1.23,3.06-2.23l1.71,1.97c-1,1.2-2.25,2.11-3.75,2.74-1.5.63-3.15.94-4.95.94Z" stroke="none" fill="#fff"/>
    <path d="M632.66,365.51v-31.77h3.04v31.77h-3.04Z" stroke="none" fill="#fff"/>
    <path d="M644.18,365.51v-31.77h3.04v31.77h-3.04Z" stroke="none" fill="#fff"/>
    <path d="M657.24,338.06c-.63,0-1.16-.21-1.58-.64-.43-.43-.64-.94-.64-1.54s.21-1.11.64-1.52c.43-.41.96-.62,1.58-.62s1.16.2,1.58.6c.43.4.64.9.64,1.5,0,.63-.21,1.16-.62,1.58-.41.43-.95.64-1.61.64ZM655.7,365.51v-22.48h3.04v22.48h-3.04Z" stroke="none" fill="#fff"/>
    <path d="M692.09,365.77c-2.25,0-4.34-.38-6.25-1.13-1.91-.76-3.57-1.82-4.97-3.19s-2.49-2.98-3.28-4.84-1.18-3.88-1.18-6.08.39-4.22,1.18-6.08c.79-1.85,1.88-3.47,3.3-4.84,1.41-1.37,3.08-2.43,4.99-3.19,1.91-.76,4-1.13,6.25-1.13s4.21.37,6.12,1.09c1.91.73,3.52,1.82,4.84,3.28l-2.01,2.01c-1.23-1.25-2.58-2.16-4.07-2.72-1.48-.56-3.08-.83-4.8-.83-1.8,0-3.47.31-5.01.92s-2.88,1.48-4.02,2.61c-1.14,1.13-2.03,2.44-2.68,3.94-.64,1.5-.96,3.15-.96,4.95s.32,3.45.96,4.95c.64,1.5,1.53,2.81,2.68,3.94,1.14,1.13,2.48,2,4.02,2.61,1.54.61,3.21.92,5.01.92s3.31-.28,4.8-.86c1.48-.57,2.84-1.48,4.07-2.74l2.01,2.01c-1.31,1.46-2.93,2.55-4.84,3.3-1.91.74-3.97,1.11-6.17,1.11Z" stroke="none" fill="#fff"/>
    <path d="M718.37,365.72c-2.2,0-4.15-.49-5.87-1.48-1.71-.99-3.07-2.35-4.07-4.09s-1.5-3.71-1.5-5.91.5-4.24,1.5-5.95c1-1.71,2.35-3.05,4.07-4.02s3.67-1.46,5.87-1.46,4.2.49,5.93,1.48c1.73.98,3.08,2.33,4.07,4.02.98,1.7,1.48,3.67,1.48,5.93s-.49,4.2-1.48,5.93c-.99,1.73-2.35,3.08-4.09,4.07-1.74.98-3.71,1.48-5.91,1.48ZM718.37,363.03c1.63,0,3.07-.36,4.32-1.09,1.26-.73,2.25-1.75,2.98-3.08.73-1.33,1.09-2.86,1.09-4.6s-.36-3.31-1.09-4.62c-.73-1.31-1.72-2.33-2.98-3.06s-2.68-1.09-4.28-1.09-3.03.36-4.28,1.09-2.25,1.75-3,3.06-1.11,2.85-1.11,4.62.37,3.28,1.11,4.6,1.73,2.35,2.98,3.08c1.24.73,2.66,1.09,4.26,1.09Z" stroke="none" fill="#fff"/>
    <path d="M736.06,365.51v-22.48h2.91v6.12l-.3-1.07c.63-1.71,1.68-3.02,3.17-3.92,1.48-.9,3.33-1.35,5.52-1.35v2.95c-.12,0-.23,0-.34-.02-.11-.01-.23-.02-.34-.02-2.37,0-4.22.72-5.57,2.16-1.34,1.44-2.01,3.49-2.01,6.14v11.47h-3.04Z" stroke="none" fill="#fff"/>
    <path d="M753.22,373.81v-30.78h2.91v6.76l-.3,4.5.43,4.54v14.98h-3.04ZM764.83,365.72c-1.94,0-3.7-.45-5.27-1.35-1.57-.9-2.82-2.2-3.75-3.9-.93-1.7-1.39-3.77-1.39-6.23s.46-4.53,1.37-6.23c.91-1.7,2.15-2.99,3.72-3.88,1.57-.88,3.34-1.33,5.31-1.33,2.14,0,4.06.48,5.76,1.43,1.7.96,3.03,2.3,4,4.02.97,1.73,1.46,3.72,1.46,5.97s-.49,4.28-1.46,5.99c-.97,1.71-2.3,3.05-4,4.03s-3.62,1.46-5.76,1.46ZM764.61,363.03c1.6,0,3.03-.36,4.28-1.09,1.26-.73,2.25-1.75,3-3.08s1.11-2.86,1.11-4.6-.37-3.27-1.11-4.58-1.74-2.34-3-3.08c-1.26-.74-2.68-1.11-4.28-1.11s-3.03.37-4.3,1.11c-1.27.74-2.27,1.77-3,3.08-.73,1.31-1.09,2.84-1.09,4.58s.36,3.28,1.09,4.6c.73,1.33,1.73,2.35,3,3.08,1.27.73,2.7,1.09,4.3,1.09Z" stroke="none" fill="#fff"/>
  </g>
  <g>
    <polygon points="238.63 163.58 170.11 163.58 272.89 248.47 238.63 276.76 101.59 163.58 33.08 220.17 33.08 276.76 101.59 220.17 238.63 333.35 307.15 276.76 307.15 220.17 238.63 163.58" stroke-width="6px" stroke-miterlimit="10" stroke="#00b4ab" fill="#00b4ab"/>
    <polygon points="101.59 431.79 170.11 431.79 67.33 346.91 101.59 318.62 238.63 431.79 307.15 375.2 307.15 318.62 238.63 375.2 101.59 262.03 33.08 318.62 33.08 375.2 101.59 431.79" stroke-width="6px" stroke-miterlimit="10" stroke="#00b4ab" fill="#00b4ab"/>
  </g>
</svg>